Coordinates
version=1
nRows=8
nColumns=63
inDegrees=yes

Units are S.I. units (second, meters, Newtons, ...)
If the header above contains a line with 'inDegrees', this indicates whether rotational values are in degrees (yes) or radians (no).

endheader
time	pelvis_tilt	pelvis_list	pelvis_rotation	pelvis_tx	pelvis_ty	pelvis_tz	hip_flexion_r	hip_adduction_r	hip_rotation_r	knee_angle_r	knee_angle_r_beta	ankle_angle_r	subtalar_angle_r	mtp_angle_r	hip_flexion_l	hip_adduction_l	hip_rotation_l	knee_angle_l	knee_angle_l_beta	ankle_angle_l	subtalar_angle_l	mtp_angle_l	L5_S1_Flex_Ext	L5_S1_Lat_Bending	L5_S1_axial_rotation	L4_L5_Flex_Ext	L4_L5_Lat_Bending	L4_L5_axial_rotation	L3_L4_Flex_Ext	L3_L4_Lat_Bending	L3_L4_axial_rotation	L2_L3_Flex_Ext	L2_L3_Lat_Bending	L2_L3_axial_rotation	L1_L2_Flex_Ext	L1_L2_Lat_Bending	L1_L2_axial_rotation	L1_T12_Flex_Ext	L1_T12_Lat_Bending	L1_T12_axial_rotation	Abs_r3	Abs_r2	Abs_r1	Abs_t1	Abs_t2	neck_flexion	neck_bending	neck_rotation	arm_flex_r	arm_add_r	arm_rot_r	elbow_flex_r	pro_sup_r	wrist_flex_r	wrist_dev_r	arm_flex_l	arm_add_l	arm_rot_l	elbow_flex_l	pro_sup_l	wrist_flex_l	wrist_dev_l
3.545455	-5.706768	1.970322	101.516991	0.299545	0.790773	0.635987	-7.601434	-2.119784	-5.787272	7.643677	0.133407	23.106239	-13.594652	0.000000	-6.086528	-0.458564	3.824551	6.193817	0.108103	21.197335	14.316092	0.000000	0.121227	0.410496	-1.071963	0.225131	0.545960	-1.138960	0.199165	0.998081	-1.138960	0.138551	0.998081	-0.937967	0.112572	0.837084	-0.870970	0.069269	0.635859	-0.803972	0.865915	4.643618	-5.961935	0.000000	0.000000	18.147732	1.459163	25.341803	51.419081	12.177601	42.018529	130.481510	74.170913	-17.571651	21.188801	49.696485	-78.551790	-9.429513	128.265291	87.350555	-40.351954	-9.181710
3.563636	-5.601887	1.807056	101.740709	0.299144	0.790283	0.636679	-7.355811	-2.066786	-6.070558	7.671276	0.133889	23.364378	-13.307455	0.000000	-5.756053	-0.536800	4.008365	6.350323	0.110834	21.381579	14.320564	0.000000	0.118919	0.427445	-1.293375	0.220845	0.568502	-1.374211	0.195372	1.039289	-1.374211	0.135913	1.039289	-1.131703	0.110428	0.871646	-1.050867	0.067950	0.662112	-0.970031	0.849428	4.835342	-7.193364	0.000000	0.000000	16.889365	1.262780	26.857647	50.450767	10.957537	44.216370	129.003169	81.678610	-23.287937	20.248160	33.138811	-77.591117	-24.570062	131.516802	87.326828	-36.669775	-7.199007
3.581818	-5.485380	1.679293	101.948275	0.298723	0.789706	0.637558	-7.122979	-2.001412	-6.290046	7.704763	0.134473	23.656560	-13.006115	0.000000	-5.434626	-0.626143	4.139931	6.528017	0.113935	21.623853	14.333991	0.000000	0.114188	0.442687	-1.479724	0.212059	0.588774	-1.572207	0.187600	1.076350	-1.572207	0.130506	1.076350	-1.294759	0.106035	0.902728	-1.202276	0.065247	0.685723	-1.109793	0.815637	5.007769	-8.229782	0.000000	0.000000	15.629740	1.048026	28.143800	49.356889	9.481207	46.008226	127.206980	90.028475	-27.969152	18.166394	18.751298	-75.874669	-37.077961	134.379322	87.311086	-33.267807	-5.171848
3.600000	-5.358385	1.592804	102.108776	0.298383	0.789071	0.638606	-6.909445	-1.918657	-6.416370	7.746843	0.135208	23.960666	-12.727219	0.000000	-5.140127	-0.728773	4.211642	6.710967	0.117128	21.899313	14.338525	0.000000	0.106864	0.453429	-1.600827	0.198457	0.603061	-1.700879	0.175567	1.102468	-1.700879	0.122135	1.102468	-1.400724	0.099234	0.924633	-1.300672	0.061062	0.702362	-1.200620	0.763320	5.129283	-8.903320	0.000000	0.000000	14.409398	0.804812	28.949434	48.181681	7.727537	47.743110	124.959506	91.983980	-30.052013	16.223520	7.005831	-73.361096	-46.484409	136.725296	87.314042	-29.982510	-3.279796
3.618182	-5.252272	1.544626	102.271991	0.298081	0.788362	0.639839	-6.727135	-1.846772	-6.508232	7.799998	0.136136	24.290038	-12.462024	0.000000	-4.866831	-0.818399	4.224974	6.905074	0.120516	22.214071	14.406271	0.000000	0.096011	0.455463	-1.686345	0.178303	0.605766	-1.791742	0.157737	1.107413	-1.791742	0.109731	1.107413	-1.475552	0.089156	0.928780	-1.370155	0.054861	0.705512	-1.264759	0.685799	5.152288	-9.378945	0.000000	0.000000	13.302357	0.629583	29.408668	46.956271	5.770250	49.217446	122.373262	91.873379	-30.345555	13.725266	-1.819144	-70.118677	-52.572789	138.626158	87.345221	-27.020345	-1.311837
3.636364	-5.143110	1.534318	102.392642	0.297857	0.787577	0.641198	-6.576123	-1.758414	-6.489246	7.868386	0.137329	24.597934	-12.302944	0.000000	-4.637999	-0.914806	4.221449	7.077260	0.123521	22.559285	14.441481	0.000000	0.084044	0.449969	-1.700834	0.156078	0.598458	-1.807136	0.138075	1.094054	-1.807136	0.096054	1.094054	-1.488229	0.078043	0.917576	-1.381927	0.048023	0.697002	-1.275625	0.600316	5.090137	-9.459527	0.000000	0.000000	12.347414	0.420458	29.216800	45.493212	3.637623	50.060413	119.653668	89.339696	-29.263323	11.543936	-7.372315	-66.255860	-55.016068	139.923275	87.428089	-24.335925	0.432422
3.654545	-5.032685	1.566072	102.455074	0.297756	0.786723	0.642664	-6.466365	-1.655844	-6.365133	7.949991	0.138754	24.876309	-12.240946	0.000000	-4.466282	-1.018108	4.169419	7.219556	0.126005	22.927916	14.471455	0.000000	0.071127	0.435929	-1.630319	0.132090	0.579785	-1.732214	0.116854	1.059917	-1.732214	0.081291	1.059917	-1.426529	0.066048	0.888945	-1.324634	0.040642	0.675253	-1.222739	0.508052	4.931310	-9.067344	0.000000	0.000000	11.596334	0.147771	28.216168	43.766594	1.355957	50.245768	116.808968	84.219489	-26.728564	9.765118	-9.869591	-61.852555	-54.100285	140.497443	87.575200	-22.094542	1.704035
3.672727	-4.906587	1.639623	102.421263	0.297785	0.785800	0.644194	-6.394558	-1.531116	-6.104621	8.049431	0.140489	25.102600	-12.280897	0.000000	-4.365578	-1.136839	4.065293	7.315633	0.127682	23.307737	14.460215	0.000000	0.057149	0.416052	-1.472017	0.106131	0.553349	-1.564019	0.093890	1.011588	-1.564019	0.065315	1.011588	-1.288015	0.053068	0.848412	-1.196014	0.032655	0.644464	-1.104013	0.408209	4.706459	-8.186919	0.000000	0.000000	11.101513	-0.187073	26.439157	41.688161	-1.019346	49.559530	114.200933	83.872842	-23.528394	7.969968	-9.258043	-57.088197	-49.845061	140.324303	87.786252	-20.348693	2.409304
